<svg xmlns="http://www.w3.org/2000/svg" width="640" height="190"><title>logotype</title><desc>Created with Sketch.</desc><g fill="none" opacity=".98"><g fill="#fff"><path d="M299.1 1c.95 0 2.88 0 3.85 0 .05 63 .1 126-.04 189-.95 0-2.88 0-3.85 0-.05-63-.1-126 .04-189z"/><g><path id="Shape" d="M3.1 57.13c3.73-.06 7.46-.06 11.18.02 3.74 20.8 7.75 41.55 11.6 62.33.4 1.23 2.1 3.4 1.18-1.26 3.28-20.2 7.24-40.27 10.58-60.44.14-.15.42-.45.56-.6 3.7.1 7.9-.58 11.33.3 3.72 21.15 7.42 42.52 11.2 63.73l.46.1c3.38-21.44 7.45-42.8 11.42-64.15 3.34-.04 6.7-.14 10.04 0-3.42 21.04-7.77 41.98-11.42 63-1.16 4.48-1.25 9.2-2.8 13.58-5 .08-10.02.16-15.02 0-3.38-17-6.78-34-9.73-51.08l-.44.12c-3.7 16.94-6.5 34.08-10.35 50.96-5.2.05-10.4.2-15.6 0-3.77-18.45-7-37.08-10.5-55.6-1.13-7-2.95-13.94-3.7-21zM115.94 57.13c10.33 0 20.65-.13 30.97.07 5.72 1 11.92 3.34 14.66 8.64 2.2 3 2.4 6.77 2.32 10.3-.05 13.6.03 27.2-.04 40.8-.08 5.53-3.3 11.03-8.48 13.56-4.73 2.7-10.44 2.57-15.74 3.26-7.9.07-15.8.06-23.68 0-.03-25.54-.04-51.1 0-76.63zm11.85 7.6c-.06 20.3-.04 40.6-.02 60.88 5.8-.2 11.77.66 17.48-.5 4.3-.7 6.92-4.77 7.3-8.73.05-13.6.04-27.18 0-40.77 0-2.68-.8-5.32-2.25-7.6-6.25-5.22-15.02-2.73-22.5-3.26zM198.86 57.13c5.4.05 10.8-.2 16.2.06 5.58 19.7 11.16 39.45 16.53 59.23-.23 1.2 1.1-.16 1.1-.57 5.14-19.6 10.5-39.16 15.8-58.73 5.43 0 10.87-.12 16.3.02.04 25.54.04 51.08 0 76.63-3.55-.6-8.1 1.2-11.18-.65-.2-19.55 0-39.1-.1-58.66l-.47.14c-4.84 19.6-10.64 38.98-15.42 58.6-3.9.1-7.8.1-11.68.03-4.83-17.6-9.92-35.1-14.83-52.68-.98-2.1-.67-5-2.1-6.68-.06 19.25-.03 38.5-.02 57.75-.03.76.12 1.67-.7 2.1-3.15.1-6.3.16-9.45.05-.03-25.55-.03-51.1 0-76.64z"/></g><g><path d="M353.92 53.4c5.74-.47 11.96-.97 17.3 1.77 5 2.1 8.7 7.02 9.54 12.5.44 3.54 1.1 7.1.83 10.7-.84-.02-2.48-.02-3.3-.02.17-6.48-.02-14.17-5.16-18.8-3.23-2.65-7.43-4.45-11.6-4.16-7.32-1.03-16.2 2.22-18.75 9.94-1.2 3.23-1.43 6.73-1.35 10.15.02 13.57 0 27.15 0 40.73.44 6.04 3.45 12.42 9.3 14.55 7.02 2.62 15.5 2.4 21.83-2.05 3.06-2.62 4.84-6.57 5.38-10.6.6-7.28.24-14.65.27-21.97-5.38-.13-10.75.1-16.12-.05-.04-.74-.04-1.5 0-2.23 6.5-.04 13-.05 19.48 0-.7 10.83 2.25 22.75-3.34 32.67-3.97 6.4-11.92 8.7-18.94 8.07-7.17.67-14.78-2.55-18.52-9.07-2.66-5.5-2.75-11.88-2.68-17.9.1-11.85-.14-23.7.1-35.55.33-6.82 3.67-13.75 9.78-16.85 1.9-.8 3.9-1.44 5.94-1.84zM481.6 53.4c6.85-.75 14.36-.76 20.32 3.3 4.28 2.6 6.63 7.6 7.33 12.5.1 16.25.02 32.5.03 48.75-.53 5.5-3.45 11.15-8.38 13.7-5.57 3.74-12.6 2.95-18.9 2.84-5.24-.96-10.95-3.36-13.4-8.54-1.88-3.26-3.05-7.07-2.8-10.88 0-14.35-.02-28.7 0-43.04-.05-6.7 3.44-13.68 9.48-16.6 2.03-.9 4.13-1.65 6.32-2.05zm.56 2.3c-7.34.8-12.97 7.73-13 15.2-.04 15.3-.04 30.6 0 45.9.05 6.3 3.87 12.7 9.98 14.4 5.83 2.26 12.72 1.53 18.45-.6 6.44-2.65 8.83-10.1 8.87-16.67.05-13.4.06-26.78 0-40.17-.24-5.33-1.58-11.16-5.86-14.6-5.1-4.42-12.24-4.1-18.44-3.47zM401.7 53.72c8.36-.06 16.72-.03 25.08-.03 6.08.56 12.6 3.64 15.04 9.74 1.82 5.17.92 10.7 1.13 16.07.42 4.24-1.4 8.26-3.94 11.46-3.07 2.85-7.1 3.82-11.02 4.67l-.07.42c6.38.48 12.85 4.26 14.58 10.94 1.6 8.85-1.48 18.68 2.76 27-3.47 1.74-3.95-1.65-4.76-3.82-1.42-8.53 1.57-18-2.57-26-3.8-5.93-11.46-7.1-17.83-6.92-4.95-.62-9.96-.78-14.93-.45-.15.16-.45.47-.6.62-.2 11.42-.04 22.86-.06 34.3-.13 1.52.68 4.3-2.78 2.28-.04-26.76-.04-53.52 0-80.28zm2.8 2.28c-.07 12.8-.05 25.6-.02 38.4 6.12.1 12.26.03 18.4 0 5.48-.44 11.98-1.5 15.03-6.86 3.35-6.4 2.16-13.96 1.34-20.83-.87-6.24-7.04-9.78-12.65-10.48-7.36-.5-14.75-.14-22.1-.22zM529.4 53.7h3.3c.06 21.03-.05 42.06.03 63.1.13 5.62 2.98 11.73 8.35 13.8 3.22 1.86 6.98 1.83 10.58 1.72 6.73.5 14.12-3.6 15.98-10.53 1-3.1.67-6.43 1.27-9.6.13-19.5-.03-39 .08-58.5h2.73c.08 20.07 0 40.15.05 60.23.4 5.95-1.88 12.04-5.98 16.23-6.7 5.24-15.87 5.43-23.77 3.5-8-2-13.1-10.33-12.65-18.58.04-20.46-.04-40.93.04-61.38zM591.83 53.72c8.35-.06 16.72-.04 25.08-.02 4.78.57 9.74 2.33 12.87 6.27 4.85 6.88 4 15.93 3.62 23.94-.56 5.58-3.44 11.2-8.7 13.36-9.28 4.07-19.72 2.5-29.53 2.93-.1 11.26.08 22.53-.05 33.8h-3.3c-.02-26.76-.03-53.52 0-80.28zM595.2 56c-.1 13.94-.05 27.9-.03 41.83 7.05.24 14.1-.03 21.14-.63 3.4-.63 6.9-1.55 9.66-3.8 3.25-3.06 4.53-7.74 4.33-12.17-.28-5.85.96-12.23-1.87-17.62-2.6-5.1-8.4-7.4-13.76-7.58-6.5-.07-13-.05-19.48-.02z"/></g></g></g></svg>